<svg id="Component_1_1" data-name="Component 1 – 1" xmlns="http://www.w3.org/2000/svg" width="155.353" height="90.027" viewBox="0 0 155.353 90.027">
  <g id="Group_206" data-name="Group 206">
    <rect id="Rectangle_1" data-name="Rectangle 1" width="90.708" height="5.791" transform="translate(0.176 84.237)"/>
    <g id="Group_1" data-name="Group 1">
      <path id="Path_1" data-name="Path 1" d="M767.832,415.208h4.912l4.339,6.9,5.044-6.9h4.493v15.83h-4.758v-9.95l-5.44,7.6H776l-5-7.395v9.746h-3.171Z" transform="translate(-766.466 -414.982)"/>
      <path id="Path_2" data-name="Path 2" d="M821.428,415.208H835v3.256h-8.81v2.759h8.062v2.985h-8.062v3.573h9.031v3.256H821.428Z" transform="translate(-798.895 -414.982)"/>
      <path id="Path_3" data-name="Path 3" d="M860.97,415.208h4.912l4.34,6.9,5.044-6.9h4.493v15.83H875v-9.95l-5.44,7.6h-.419l-5-7.395v9.746H860.97Z" transform="translate(-822.82 -414.982)"/>
      <path id="Path_4" data-name="Path 4" d="M924.368,415.208c3.018,0,4.647,1.674,4.647,4.772s-1.63,4.771-4.647,4.771h-5.044v6.286h-4.758v-15.83Zm-5.044,6.558h3.326a1.651,1.651,0,0,0,0-3.3h-3.326Z" transform="translate(-855.248 -414.982)"/>
      <path id="Path_5" data-name="Path 5" d="M955.111,415.208h4.758v6.151h5.507v-6.151h4.757v15.83h-4.757v-6.694h-5.507v6.694h-4.758Z" transform="translate(-879.78 -414.982)"/>
      <path id="Path_6" data-name="Path 6" d="M1003.929,415.208v15.83h-4.758v-15.83Z" transform="translate(-906.439 -414.982)"/>
      <path id="Path_7" data-name="Path 7" d="M1023.1,430.932c-4.1,0-7.6-1.764-8.04-5.879h3.436c.11.949.925,2.894,4.185,2.894,1.5,0,3-.294,3-1.379,0-1.108-1.255-1.334-3.26-1.628-5.022-.746-6.718-2.668-6.718-5.314,0-2.827,2.621-4.975,6.872-4.975,5.353,0,7.665,3.121,7.665,5.654h-3.172c0-1.561-1.409-2.714-3.722-2.714-1.652,0-2.6.565-2.6,1.448,0,.9.793,1.356,3.458,1.763,3.789.566,6.674,1.787,6.674,5.292C1030.88,428.852,1028.3,430.932,1023.1,430.932Z" transform="translate(-916.056 -414.65)"/>
      <path id="Path_8" data-name="Path 8" d="M767.832,466.857h5.374l7.181,9.476v-9.476h3.172v15.83h-4.647L771,472.285v10.4h-3.171Z" transform="translate(-766.466 -445.688)"/>
      <path id="Path_9" data-name="Path 9" d="M812.17,474.441c0-5.292,3-8.141,8-8.141s7.974,2.849,7.974,8.141-2.952,8.141-7.974,8.141C815.166,482.582,812.17,479.733,812.17,474.441Zm8,5.11c1.917,0,2.952-1.944,2.952-5.11s-1.035-5.111-2.952-5.111-2.973,1.945-2.973,5.111S818.249,479.551,820.165,479.551Z" transform="translate(-793.293 -445.357)"/>
      <path id="Path_10" data-name="Path 10" d="M857.121,466.857H862.5l7.181,9.476v-9.476h3.172v15.83H868.2l-7.908-10.4v10.4h-3.172Z" transform="translate(-820.491 -445.688)"/>
      <path id="Path_11" data-name="Path 11" d="M912.767,466.857c3.018,0,4.648,1.674,4.648,4.772s-1.63,4.772-4.648,4.772h-5.044v6.286h-4.758v-15.83Zm-5.044,6.558h3.326a1.651,1.651,0,0,0,0-3.3h-3.326Z" transform="translate(-848.229 -445.688)"/>
      <path id="Path_12" data-name="Path 12" d="M943.51,482.687v-15.83h9.405c3.105,0,4.78,1.832,4.78,4.3a4.443,4.443,0,0,1-2.775,4.41l3.745,7.123h-5.309l-3.172-6.286h-1.916v6.286Zm4.758-9.272h3.326a1.651,1.651,0,0,0,0-3.3h-3.326Z" transform="translate(-872.761 -445.688)"/>
      <path id="Path_13" data-name="Path 13" d="M982.439,474.441c0-5.292,3-8.141,8-8.141s7.973,2.849,7.973,8.141-2.951,8.141-7.973,8.141C985.435,482.582,982.439,479.733,982.439,474.441Zm8,5.11c1.916,0,2.951-1.944,2.951-5.11s-1.035-5.111-2.951-5.111-2.974,1.945-2.974,5.111S988.518,479.551,990.435,479.551Z" transform="translate(-896.315 -445.357)"/>
      <path id="Path_14" data-name="Path 14" d="M1027.391,466.857h13.568v3.257h-8.81v2.759h8.062v2.985h-8.062v6.829h-4.758Z" transform="translate(-923.514 -445.688)"/>
      <path id="Path_15" data-name="Path 15" d="M1070.687,466.857v15.83h-4.758v-15.83Z" transform="translate(-946.831 -445.688)"/>
      <path id="Path_16" data-name="Path 16" d="M1081.768,466.857h14.008v3.257h-4.625v12.573h-4.758V470.114h-4.625Z" transform="translate(-956.415 -445.688)"/>
      <path id="Path_17" data-name="Path 17" d="M1125.724,482.582c-4.1,0-7.6-1.764-8.04-5.879h3.436c.11.95.925,2.895,4.184,2.895,1.5,0,3-.294,3-1.38,0-1.108-1.255-1.334-3.259-1.628-5.022-.746-6.718-2.668-6.718-5.315,0-2.826,2.622-4.975,6.872-4.975,5.353,0,7.665,3.121,7.665,5.654h-3.172c0-1.56-1.409-2.713-3.722-2.713-1.652,0-2.6.565-2.6,1.447,0,.9.793,1.357,3.458,1.764,3.789.565,6.674,1.787,6.674,5.292C1133.5,480.5,1130.921,482.582,1125.724,482.582Z" transform="translate(-978.146 -445.357)"/>
      <path id="Path_18" data-name="Path 18" d="M767.832,518.507h7.335c5,0,7.974,2.849,7.974,7.915s-2.952,7.915-7.952,7.915h-7.357Zm7.335,12.89c1.917,0,2.731-1.945,2.731-4.975s-.815-4.975-2.731-4.975H772.59v9.95Z" transform="translate(-766.466 -476.395)"/>
      <path id="Path_19" data-name="Path 19" d="M811.109,518.507h13.569v3.256h-8.811v2.759h8.062v2.985h-8.062v3.573H824.9v3.256H811.109Z" transform="translate(-792.651 -476.395)"/>
      <path id="Path_20" data-name="Path 20" d="M850.651,518.507h4.912l4.339,6.9,5.044-6.9h4.493v15.83h-4.757v-9.95l-5.441,7.6h-.419l-5-7.395v9.747h-3.172Z" transform="translate(-816.576 -476.395)"/>
      <path id="Path_21" data-name="Path 21" d="M906.3,518.507h5.4l6.168,15.83h-4.978l-1.432-3.686h-5.991l-1.277,3.686H900.79Zm3.877,8.887-1.895-4.862-1.674,4.862Z" transform="translate(-846.913 -476.395)"/>
      <path id="Path_22" data-name="Path 22" d="M946.132,518.507h5.374l7.181,9.475v-9.475h3.172v15.83h-4.647l-7.908-10.4v10.4h-3.172Z" transform="translate(-874.348 -476.395)"/>
      <path id="Path_23" data-name="Path 23" d="M991.976,518.507h7.334c5,0,7.973,2.849,7.973,7.915s-2.951,7.915-7.951,7.915h-7.357Zm7.334,12.89c1.916,0,2.731-1.945,2.731-4.975s-.815-4.975-2.731-4.975h-2.577v9.95Z" transform="translate(-902.086 -476.395)"/>
      <path id="Path_24" data-name="Path 24" d="M769.88,570.156h5.4l6.168,15.83h-4.978l-1.432-3.686h-5.991l-1.277,3.686h-3.392Zm3.877,8.887-1.894-4.862-1.674,4.862Z" transform="translate(-764.374 -507.102)"/>
      <path id="Path_25" data-name="Path 25" d="M822.431,580.228c-.815,3.686-3.568,5.653-7.732,5.653-5,0-8-2.849-8-8.141s3-8.141,8-8.141c4.141,0,6.894,1.967,7.709,5.654h-3.436a3.4,3.4,0,0,0-3.436-2.623c-2.445,0-3.81,1.945-3.81,5.111s1.366,5.11,3.81,5.11a3.4,3.4,0,0,0,3.436-2.623Z" transform="translate(-789.986 -506.77)"/>
      <path id="Path_26" data-name="Path 26" d="M846.8,570.156h14.008v3.257h-4.625v12.573h-4.757V573.413H846.8Z" transform="translate(-814.249 -507.102)"/>
      <path id="Path_27" data-name="Path 27" d="M890.824,570.156v15.83h-4.758v-15.83Z" transform="translate(-838.004 -507.102)"/>
      <path id="Path_28" data-name="Path 28" d="M902.63,577.74c0-5.292,3-8.141,8-8.141s7.973,2.849,7.973,8.141-2.951,8.141-7.973,8.141C905.626,585.881,902.63,583.032,902.63,577.74Zm8,5.11c1.916,0,2.951-1.945,2.951-5.11s-1.035-5.111-2.951-5.111-2.973,1.945-2.973,5.111S908.709,582.85,910.626,582.85Z" transform="translate(-848.026 -506.77)"/>
      <path id="Path_29" data-name="Path 29" d="M947.581,570.156h5.374l7.18,9.475v-9.475h3.172v15.83H958.66l-7.908-10.4v10.4h-3.172Z" transform="translate(-875.224 -507.102)"/>
    </g>
  </g>
</svg>
